<svg width="45" height="45" viewBox="0 0 45 45" fill="none" xmlns="http://www.w3.org/2000/svg">
<path d="M45 22.5C45 34.9264 34.9264 45 22.5 45C10.0736 45 0 34.9264 0 22.5C0 10.0736 10.0736 0 22.5 0C34.9264 0 45 10.0736 45 22.5ZM4.21928 22.5C4.21928 32.5962 12.4038 40.7807 22.5 40.7807C32.5962 40.7807 40.7807 32.5962 40.7807 22.5C40.7807 12.4038 32.5962 4.21928 22.5 4.21928C12.4038 4.21928 4.21928 12.4038 4.21928 22.5Z" fill="#E4E7EC"/>
<path d="M22.5 2.10638C22.5 0.943058 23.4451 -0.010227 24.6033 0.0985207C27.764 0.395276 30.8344 1.35843 33.6088 2.93361C36.9955 4.85639 39.8251 7.62528 41.8209 10.9694C43.8167 14.3136 44.9103 18.1185 44.9947 22.012C45.0792 25.9056 44.1516 29.7543 42.3027 33.1819C40.4538 36.6095 37.7469 39.4984 34.4468 41.5663C31.1467 43.6341 27.3664 44.81 23.4757 44.9788C19.5849 45.1477 15.7169 44.3038 12.2501 42.5297C9.40995 41.0763 6.91871 39.0394 4.93483 36.5611C4.20783 35.653 4.48539 34.3396 5.45755 33.7007V33.7007C6.4297 33.0617 7.72697 33.3413 8.47339 34.2336C10.0432 36.1102 11.9785 37.6584 14.1692 38.7795C16.9869 40.2214 20.1307 40.9073 23.293 40.77C26.4553 40.6328 29.5278 39.6771 32.21 37.9964C34.8922 36.3158 37.0923 33.9677 38.595 31.1819C40.0977 28.3961 40.8516 25.2679 40.7829 22.1034C40.7143 18.9389 39.8255 15.8464 38.2034 13.1284C36.5813 10.4103 34.2815 8.15986 31.5289 6.59709C29.3889 5.3821 27.0322 4.61512 24.6018 4.33393C23.4461 4.20023 22.5 3.2697 22.5 2.10638V2.10638Z" fill="#0AC947"/>
<path d="M14.8028 16.793H16.2658V24.295H14.8028V16.793ZM11.6348 17.552H13.1858C13.1858 20.313 11.4368 22.326 8.47778 23.239L7.87278 22.084C10.2378 21.336 11.6348 19.939 11.6348 18.234V17.552ZM8.41178 17.552H12.5478V18.729H8.41178V17.552ZM12.6248 18.74H15.0118V19.917H12.6248V18.74ZM12.5258 21.039H14.9348V22.205H12.5258V21.039ZM9.58878 25.637H16.5188V26.803H9.58878V25.637ZM9.58878 23.569H11.0628V26.385H9.58878V23.569ZM20.2139 17.805H21.4019V18.454C21.4019 20.368 20.4999 22.139 18.5419 22.777L17.8049 21.622C19.4879 21.072 20.2139 19.73 20.2139 18.454V17.805ZM20.5219 17.805H21.6989V18.454C21.6989 19.642 22.3919 20.896 23.9979 21.435L23.2829 22.579C21.3909 21.952 20.5219 20.258 20.5219 18.454V17.805ZM23.4039 19.224H25.3399V20.412H23.4039V19.224ZM18.2009 17.354H23.6789V18.509H18.2009V17.354ZM19.4439 23.316H26.3849V26.979H24.9219V24.482H19.4439V23.316ZM24.9219 16.793H26.3849V22.854H24.9219V16.793ZM31.8511 21.908H33.3141V23.701H31.8511V21.908ZM27.9791 21.424H37.1861V22.579H27.9791V21.424ZM32.5661 23.305C34.7661 23.305 36.0971 23.965 36.0971 25.142C36.0971 26.319 34.7661 26.979 32.5661 26.979C30.3551 26.979 29.0241 26.319 29.0241 25.142C29.0241 23.965 30.3551 23.305 32.5661 23.305ZM32.5661 24.405C31.2021 24.405 30.5091 24.636 30.5091 25.142C30.5091 25.637 31.2021 25.879 32.5661 25.879C33.9301 25.879 34.6231 25.637 34.6231 25.142C34.6231 24.636 33.9301 24.405 32.5661 24.405ZM31.5761 17.75H32.8741V18.003C32.8741 19.532 31.4991 20.786 28.8701 21.028L28.3641 19.884C30.5971 19.697 31.5761 18.795 31.5761 18.003V17.75ZM32.2911 17.75H33.5891V18.003C33.5891 18.806 34.5571 19.697 36.8011 19.884L36.2951 21.028C33.6771 20.786 32.2911 19.543 32.2911 18.003V17.75ZM28.8151 17.211H36.3611V18.366H28.8151V17.211Z" fill="#1E293B"/>
</svg>
