<svg width="45" height="45" viewBox="0 0 45 45" fill="none" xmlns="http://www.w3.org/2000/svg">
<path d="M45 22.5C45 34.9264 34.9264 45 22.5 45C10.0736 45 0 34.9264 0 22.5C0 10.0736 10.0736 0 22.5 0C34.9264 0 45 10.0736 45 22.5ZM4.21928 22.5C4.21928 32.5962 12.4038 40.7807 22.5 40.7807C32.5962 40.7807 40.7807 32.5962 40.7807 22.5C40.7807 12.4038 32.5962 4.21928 22.5 4.21928C12.4038 4.21928 4.21928 12.4038 4.21928 22.5Z" fill="#E4E7EC"/>
<path d="M22.5 2.10638C22.5 0.943058 23.4451 -0.0102272 24.6033 0.0985222C27.764 0.395275 30.8344 1.35843 33.6088 2.93361C36.9955 4.85639 39.8251 7.62528 41.8209 10.9694C43.8167 14.3136 44.9103 18.1185 44.9947 22.012C45.0792 25.9056 44.1516 29.7543 42.3027 33.1819C40.4538 36.6095 37.7469 39.4984 34.4468 41.5663C31.1467 43.6341 27.3664 44.81 23.4757 44.9788C19.5849 45.1477 15.7169 44.3038 12.2501 42.5297C9.40995 41.0763 6.91871 39.0394 4.93483 36.5611C4.20783 35.653 4.48539 34.3396 5.45755 33.7007C6.4297 33.0617 7.72697 33.3413 8.47339 34.2336C10.0432 36.1102 11.9785 37.6584 14.1692 38.7795C16.9869 40.2214 20.1307 40.9073 23.293 40.77C26.4553 40.6328 29.5278 39.6771 32.21 37.9964C34.8922 36.3158 37.0923 33.9677 38.595 31.1819C40.0977 28.3961 40.8516 25.2679 40.7829 22.1034C40.7143 18.9389 39.8255 15.8464 38.2034 13.1284C36.5813 10.4103 34.2815 8.15986 31.5289 6.59709C29.3889 5.3821 27.0322 4.61512 24.6018 4.33393C23.4461 4.20023 22.5 3.2697 22.5 2.10638Z" fill="#0AC947"/>
<path d="M19.8624 16.793H21.3254V21.908H19.8624V16.793ZM16.4634 17.178H18.0584C18.0584 19.884 16.4964 21.468 13.4054 22.139L12.9214 20.962C15.4734 20.456 16.4634 19.334 16.4634 17.97V17.178ZM13.5044 17.178H17.0794V18.344H13.5044V17.178ZM17.6624 18.058H20.0494V19.169H17.6624V18.058ZM17.5964 20.038H19.9944V21.138H17.5964V20.038ZM14.5934 22.282H21.3254V25.087H16.0784V26.352H14.6154V24.009H19.8624V23.426H14.5934V22.282ZM14.6154 25.736H21.5344V26.88H14.6154V25.736ZM30.2785 16.793H31.6645V26.979H30.2785V16.793ZM26.9235 20.269H28.6065V21.457H26.9235V20.269ZM28.2215 16.958H29.5855V26.517H28.2215V16.958ZM24.7235 18.454H25.8235V19.499C25.8235 21.787 25.1965 24.064 23.5795 25.076L22.7105 23.998C24.2065 23.063 24.7235 21.237 24.7235 19.499V18.454ZM25.0535 18.454H26.1425V19.499C26.1425 21.193 26.6485 22.909 28.1225 23.767L27.2645 24.834C25.6475 23.877 25.0535 21.743 25.0535 19.499V18.454ZM23.0955 17.816H27.6385V18.993H23.0955V17.816Z" fill="#1E293B"/>
</svg>
