<svg width="45" height="45" viewBox="0 0 45 45" fill="none" xmlns="http://www.w3.org/2000/svg">
<path d="M45 22.5C45 34.9264 34.9264 45 22.5 45C10.0736 45 0 34.9264 0 22.5C0 10.0736 10.0736 0 22.5 0C34.9264 0 45 10.0736 45 22.5ZM4.21928 22.5C4.21928 32.5962 12.4038 40.7807 22.5 40.7807C32.5962 40.7807 40.7807 32.5962 40.7807 22.5C40.7807 12.4038 32.5962 4.21928 22.5 4.21928C12.4038 4.21928 4.21928 12.4038 4.21928 22.5Z" fill="#E4E7EC"/>
<path d="M45 22.5C45 10.0736 34.9264 0 22.5 0C10.0736 0 0 10.0736 0 22.5C0 34.9264 10.0736 45 22.5 45C34.9264 45 45 34.9264 45 22.5ZM4.21276 22.5C4.21276 12.4002 12.4002 4.21275 22.5 4.21275C32.5998 4.21275 40.7872 12.4002 40.7872 22.5C40.7872 32.5998 32.5998 40.7872 22.5 40.7872C12.4002 40.7872 4.21276 32.5998 4.21276 22.5Z" fill="#6D5DD3"/>
<path d="M15.2754 17.926H16.4854V18.784C16.4854 20.709 15.5504 22.447 13.5924 23.085L12.8444 21.941C14.5384 21.391 15.2754 20.071 15.2754 18.784V17.926ZM15.5724 17.926H16.7714V18.784C16.7714 19.994 17.4974 21.237 19.1584 21.765L18.4104 22.898C16.4964 22.293 15.5724 20.632 15.5724 18.784V17.926ZM13.2294 17.519H18.7734V18.674H13.2294V17.519ZM19.7964 16.804H21.2704V24.152H19.7964V16.804ZM14.4834 25.637H21.5234V26.803H14.4834V25.637ZM14.4834 23.492H15.9464V26.22H14.4834V23.492ZM30.2125 16.793H31.5985V23.173H30.2125V16.793ZM28.9695 19.301H30.5975V20.489H28.9695V19.301ZM28.1005 16.991H29.4645V22.843H28.1005V16.991ZM22.8755 17.838H27.8145V18.96H22.8755V17.838ZM25.3615 19.29C26.6375 19.29 27.5615 20.016 27.5615 21.072C27.5615 22.128 26.6375 22.843 25.3615 22.843C24.0855 22.843 23.1615 22.128 23.1615 21.072C23.1615 20.016 24.0855 19.29 25.3615 19.29ZM25.3615 20.335C24.8225 20.335 24.4595 20.599 24.4595 21.072C24.4595 21.545 24.8225 21.809 25.3615 21.809C25.8895 21.809 26.2525 21.545 26.2525 21.072C26.2525 20.599 25.8895 20.335 25.3615 20.335ZM24.6245 16.892H26.0655V18.608H24.6245V16.892ZM28.1555 23.283C30.3335 23.283 31.6535 23.943 31.6535 25.131C31.6535 26.308 30.3335 26.979 28.1555 26.979C25.9665 26.979 24.6465 26.308 24.6465 25.131C24.6465 23.943 25.9665 23.283 28.1555 23.283ZM28.1555 24.372C26.7915 24.372 26.1095 24.603 26.1095 25.131C26.1095 25.648 26.7915 25.89 28.1555 25.89C29.5085 25.89 30.1905 25.648 30.1905 25.131C30.1905 24.603 29.5085 24.372 28.1555 24.372Z" fill="#1E293B"/>
</svg>
