<svg width="45" height="45" viewBox="0 0 45 45" fill="none" xmlns="http://www.w3.org/2000/svg">
<path d="M45 22.5C45 34.9264 34.9264 45 22.5 45C10.0736 45 0 34.9264 0 22.5C0 10.0736 10.0736 0 22.5 0C34.9264 0 45 10.0736 45 22.5ZM4.21928 22.5C4.21928 32.5962 12.4038 40.7807 22.5 40.7807C32.5962 40.7807 40.7807 32.5962 40.7807 22.5C40.7807 12.4038 32.5962 4.21928 22.5 4.21928C12.4038 4.21928 4.21928 12.4038 4.21928 22.5Z" fill="#E4E7EC"/>
<path d="M8.26729 17.706H13.1623V24.559H8.26729V17.706ZM11.7323 18.85H9.70829V23.404H11.7323V18.85ZM14.7463 16.782H16.2203V27.001H14.7463V16.782ZM20.3554 17.926H21.5654V18.784C21.5654 20.709 20.6304 22.447 18.6724 23.085L17.9244 21.941C19.6184 21.391 20.3554 20.071 20.3554 18.784V17.926ZM20.6524 17.926H21.8514V18.784C21.8514 19.994 22.5774 21.237 24.2384 21.765L23.4904 22.898C21.5764 22.293 20.6524 20.632 20.6524 18.784V17.926ZM18.3094 17.519H23.8534V18.674H18.3094V17.519ZM24.8764 16.804H26.3504V24.152H24.8764V16.804ZM19.5634 25.637H26.6034V26.803H19.5634V25.637ZM19.5634 23.492H21.0264V26.22H19.5634V23.492ZM35.2926 16.793H36.6786V23.173H35.2926V16.793ZM34.0496 19.301H35.6776V20.489H34.0496V19.301ZM33.1806 16.991H34.5446V22.843H33.1806V16.991ZM27.9556 17.838H32.8946V18.96H27.9556V17.838ZM30.4416 19.29C31.7176 19.29 32.6416 20.016 32.6416 21.072C32.6416 22.128 31.7176 22.843 30.4416 22.843C29.1656 22.843 28.2416 22.128 28.2416 21.072C28.2416 20.016 29.1656 19.29 30.4416 19.29ZM30.4416 20.335C29.9026 20.335 29.5396 20.599 29.5396 21.072C29.5396 21.545 29.9026 21.809 30.4416 21.809C30.9696 21.809 31.3326 21.545 31.3326 21.072C31.3326 20.599 30.9696 20.335 30.4416 20.335ZM29.7046 16.892H31.1456V18.608H29.7046V16.892ZM33.2356 23.283C35.4136 23.283 36.7336 23.943 36.7336 25.131C36.7336 26.308 35.4136 26.979 33.2356 26.979C31.0466 26.979 29.7266 26.308 29.7266 25.131C29.7266 23.943 31.0466 23.283 33.2356 23.283ZM33.2356 24.372C31.8716 24.372 31.1896 24.603 31.1896 25.131C31.1896 25.648 31.8716 25.89 33.2356 25.89C34.5886 25.89 35.2706 25.648 35.2706 25.131C35.2706 24.603 34.5886 24.372 33.2356 24.372Z" fill="#C03A5A"/>
</svg>
