<svg width="45" height="45" viewBox="0 0 45 45" fill="none" xmlns="http://www.w3.org/2000/svg">
<path d="M45 22.5C45 34.9264 34.9264 45 22.5 45C10.0736 45 0 34.9264 0 22.5C0 10.0736 10.0736 0 22.5 0C34.9264 0 45 10.0736 45 22.5ZM4.21928 22.5C4.21928 32.5962 12.4038 40.7807 22.5 40.7807C32.5962 40.7807 40.7807 32.5962 40.7807 22.5C40.7807 12.4038 32.5962 4.21928 22.5 4.21928C12.4038 4.21928 4.21928 12.4038 4.21928 22.5Z" fill="#E4E7EC"/>
<path d="M16.6819 20.445H18.1339V22.271H16.6819V20.445ZM12.8209 21.666H22.0279V22.821H12.8209V21.666ZM17.4079 23.382C19.6189 23.382 20.9389 24.031 20.9389 25.186C20.9389 26.341 19.6189 26.979 17.4079 26.979C15.1969 26.979 13.8659 26.341 13.8659 25.186C13.8659 24.031 15.1969 23.382 17.4079 23.382ZM17.4079 24.482C16.0329 24.482 15.3509 24.702 15.3509 25.186C15.3509 25.681 16.0329 25.89 17.4079 25.89C18.7829 25.89 19.4649 25.681 19.4649 25.186C19.4649 24.702 18.7829 24.482 17.4079 24.482ZM16.4179 17.75H17.7159V18.003C17.7159 19.532 16.3409 20.775 13.7119 21.028L13.2059 19.873C15.4389 19.686 16.4179 18.795 16.4179 18.003V17.75ZM17.1329 17.75H18.4309V18.003C18.4309 18.795 19.3989 19.686 21.6429 19.873L21.1369 21.028C18.5189 20.775 17.1329 19.543 17.1329 18.003V17.75ZM13.6569 17.211H21.2029V18.366H13.6569V17.211ZM25.283 22.733H26.713V25.131H25.283V22.733ZM28.506 22.722H29.936V25.131H28.506V22.722ZM22.951 24.669H32.169V25.857H22.951V24.669ZM23.985 17.453H31.135V20.83H25.459V22.557H24.007V19.686H29.683V18.608H23.985V17.453ZM24.007 21.941H31.366V23.118H24.007V21.941Z" fill="#C03A5A"/>
</svg>
