<svg width="46" height="45" viewBox="0 0 46 45" fill="none" xmlns="http://www.w3.org/2000/svg">
<path d="M45.0205 22.5C45.0205 34.9264 34.9469 45 22.5205 45C10.0941 45 0.0205078 34.9264 0.0205078 22.5C0.0205078 10.0736 10.0941 0 22.5205 0C34.9469 0 45.0205 10.0736 45.0205 22.5ZM4.23978 22.5C4.23978 32.5962 12.4243 40.7807 22.5205 40.7807C32.6167 40.7807 40.8012 32.5962 40.8012 22.5C40.8012 12.4038 32.6167 4.21928 22.5205 4.21928C12.4243 4.21928 4.23978 12.4038 4.23978 22.5Z" fill="#E4E7EC"/>
<path d="M22.5205 2.10638C22.5205 0.943058 23.4657 -0.010231 24.6239 0.0985107C28.5953 0.471371 32.4099 1.89511 35.6675 4.24055C39.4967 6.99765 42.3623 10.8888 43.8588 15.3638C45.3554 19.8387 45.4072 24.6709 44.007 29.1769C42.8158 33.0102 40.6251 36.4423 37.677 39.1292C36.8172 39.9129 35.4887 39.72 34.7889 38.7907C34.0891 37.8614 34.2851 36.5489 35.1278 35.7469C37.3784 33.6049 39.0551 30.9159 39.984 27.9268C41.1221 24.2645 41.0799 20.337 39.8636 16.6999C38.6472 13.0628 36.3182 9.90021 33.2059 7.65934C30.6657 5.83038 27.7087 4.691 24.6223 4.33392C23.4667 4.20022 22.5205 3.2697 22.5205 2.10638Z" fill="#E1A71C"/>
<path d="M22.2588 17.2129V26.9883H20.9482V17.2129H22.2588ZM20.2607 17.3525V26.5371H18.9717V23.5078H17.8223C17.457 24.4585 16.8179 25.001 15.9961 25.001C14.707 25.001 13.8691 23.6475 13.8691 21.4453C13.8691 19.2539 14.707 17.9111 15.9961 17.9111C16.8125 17.9111 17.4517 18.4429 17.8223 19.3828H18.9717V17.3525H20.2607ZM15.9961 19.2002C15.4268 19.2002 15.1045 19.9521 15.1152 21.4453C15.1045 22.9492 15.4268 23.6904 15.9961 23.6797C16.5654 23.6904 16.9092 22.9492 16.9092 21.4453C16.9092 19.9521 16.5547 19.2002 15.9961 19.2002ZM18.0908 20.4785C18.1338 20.7793 18.1553 21.1016 18.1553 21.4453C18.1553 21.7837 18.1338 22.106 18.0908 22.4014H18.9717V20.4785H18.0908ZM32.3135 18.502V19.6084H31.0459V20.6074H32.3135V21.7461H31.0459V22.9814H29.6709V17.2129H31.0459V18.502H32.3135ZM31.0459 23.3682V26.9883H29.6709V24.4746H24.4609V23.3682H31.0459ZM26.04 17.75C27.5547 17.7393 28.7041 18.749 28.7041 20.124C28.7041 21.5312 27.5547 22.5195 26.04 22.5195C24.5146 22.5195 23.3545 21.5312 23.3545 20.124C23.3545 18.749 24.5146 17.7393 26.04 17.75ZM26.04 18.9209C25.2666 18.9209 24.6973 19.3613 24.708 20.124C24.6973 20.9082 25.2666 21.3594 26.04 21.3594C26.792 21.3594 27.3613 20.9082 27.3721 20.124C27.3613 19.3613 26.792 18.9209 26.04 18.9209Z" fill="#1E293B"/>
</svg>
