<svg width="46" height="45" viewBox="0 0 46 45" fill="none" xmlns="http://www.w3.org/2000/svg">
<path d="M45.0205 22.5C45.0205 34.9264 34.9469 45 22.5205 45C10.0941 45 0.0205078 34.9264 0.0205078 22.5C0.0205078 10.0736 10.0941 0 22.5205 0C34.9469 0 45.0205 10.0736 45.0205 22.5ZM4.23978 22.5C4.23978 32.5962 12.4243 40.7807 22.5205 40.7807C32.6167 40.7807 40.8012 32.5962 40.8012 22.5C40.8012 12.4038 32.6167 4.21928 22.5205 4.21928C12.4243 4.21928 4.23978 12.4038 4.23978 22.5Z" fill="#E4E7EC"/>
<path d="M22.5205 2.10638C22.5205 0.943058 23.4657 -0.0102315 24.6239 0.0985104C28.5953 0.47137 32.4099 1.89511 35.6675 4.24055C39.4967 6.99765 42.3623 10.8888 43.8588 15.3638C45.3554 19.8387 45.4072 24.6709 44.007 29.1769C42.8158 33.0102 40.6251 36.4423 37.677 39.1292C36.8172 39.9129 35.4887 39.72 34.7889 38.7907V38.7907C34.0891 37.8614 34.2851 36.5489 35.1278 35.7469C37.3784 33.6049 39.0551 30.9159 39.984 27.9268C41.1221 24.2645 41.0799 20.337 39.8636 16.6999C38.6472 13.0628 36.3182 9.90021 33.2059 7.65933C30.6657 5.83038 27.7087 4.691 24.6223 4.33392C23.4667 4.20022 22.5205 3.2697 22.5205 2.10638V2.10638Z" fill="#E1A71C"/>
<path d="M22.0225 17.2129V22.5625H20.6582V20.5215H19.1113V19.4043H20.6582V17.2129H22.0225ZM16.8555 22.9385V23.8623H20.6582V22.9385H22.0225V26.8809H15.502V22.9385H16.8555ZM16.8555 25.7852H20.6582V24.915H16.8555V25.7852ZM19.4229 17.6533V18.7705H17.4893C17.543 19.8608 18.2412 20.9941 19.7236 21.4775L19.0469 22.5303C17.9619 22.1704 17.2153 21.4722 16.791 20.5859C16.3613 21.5688 15.5825 22.3584 14.4277 22.7344L13.7295 21.6602C15.2656 21.1499 16.0015 19.9629 16.082 18.7705H14.1162V17.6533H19.4229ZM28.4785 17.9756C28.4785 19.125 29.6494 20.4033 31.8945 20.6826L31.3574 21.7891C29.6494 21.542 28.3979 20.7524 27.7588 19.6943C27.1143 20.7524 25.8735 21.542 24.1816 21.7891L23.6338 20.6826C25.8574 20.4033 27.0391 19.125 27.0391 17.9756V17.5029H28.4785V17.9756ZM32.2061 22.5303V23.6475H28.4033V26.9883H27.0498V23.6475H23.29V22.5303H32.2061Z" fill="#1E293B"/>
</svg>
