<svg width="45" height="45" viewBox="0 0 45 45" fill="none" xmlns="http://www.w3.org/2000/svg">
<path d="M45 22.5C45 34.9264 34.9264 45 22.5 45C10.0736 45 0 34.9264 0 22.5C0 10.0736 10.0736 0 22.5 0C34.9264 0 45 10.0736 45 22.5ZM4.21928 22.5C4.21928 32.5962 12.4038 40.7807 22.5 40.7807C32.5962 40.7807 40.7807 32.5962 40.7807 22.5C40.7807 12.4038 32.5962 4.21928 22.5 4.21928C12.4038 4.21928 4.21928 12.4038 4.21928 22.5Z" fill="#E4E7EC"/>
<path d="M45 22.5C45 10.0736 34.9264 0 22.5 0C10.0736 0 0 10.0736 0 22.5C0 34.9264 10.0736 45 22.5 45C34.9264 45 45 34.9264 45 22.5ZM4.21276 22.5C4.21276 12.4002 12.4002 4.21276 22.5 4.21276C32.5998 4.21276 40.7872 12.4002 40.7872 22.5C40.7872 32.5998 32.5998 40.7872 22.5 40.7872C12.4002 40.7872 4.21276 32.5998 4.21276 22.5Z" fill="#6D5DD3"/>
<path d="M16.8484 19.037H18.5424V20.214H16.8484V19.037ZM16.8484 22.183H18.5424V23.371H16.8484V22.183ZM20.1594 16.793H21.5564V26.979H20.1594V16.793ZM18.1244 16.947H19.4884V26.517H18.1244V16.947ZM15.0884 17.508C16.4414 17.508 17.3104 18.905 17.3104 21.204C17.3104 23.514 16.4414 24.911 15.0884 24.911C13.7464 24.911 12.8884 23.514 12.8884 21.204C12.8884 18.905 13.7464 17.508 15.0884 17.508ZM15.0884 18.883C14.5274 18.883 14.1974 19.653 14.1974 21.204C14.1974 22.766 14.5274 23.525 15.0884 23.525C15.6604 23.525 15.9904 22.766 15.9904 21.204C15.9904 19.653 15.6604 18.883 15.0884 18.883ZM30.4875 18.113H32.2475V19.312H30.4875V18.113ZM30.4875 20.324H32.2475V21.523H30.4875V20.324ZM29.4755 16.793H30.9385V22.799H29.4755V16.793ZM24.1405 23.217H30.9385V26.979H29.4755V24.383H24.1405V23.217ZM25.7575 17.343C27.3305 17.343 28.5295 18.388 28.5295 19.84C28.5295 21.292 27.3305 22.326 25.7575 22.326C24.1845 22.326 22.9855 21.292 22.9855 19.84C22.9855 18.388 24.1845 17.343 25.7575 17.343ZM25.7575 18.586C24.9875 18.586 24.4155 19.037 24.4155 19.84C24.4155 20.643 24.9875 21.105 25.7575 21.105C26.5275 21.105 27.0995 20.643 27.0995 19.84C27.0995 19.037 26.5275 18.586 25.7575 18.586Z" fill="#1E293B"/>
</svg>
