<svg width="172" height="80" viewBox="0 0 172 80" fill="none" xmlns="http://www.w3.org/2000/svg">
<g clip-path="url(#clip0_2154_20748)">
<path d="M63.2424 51.1404C63.1971 53.5318 62.7895 62.7398 58.3644 61.3991C55.2483 60.457 51.7563 57.3092 50.8187 54.1523C49.9763 51.3034 52.2092 49.2698 54.424 47.911C57.0056 46.3213 59.9179 45.1844 62.948 44.3193C63.1835 46.593 63.2877 48.8758 63.2469 51.1404H63.2424Z" fill="#ffffff"/>
<path d="M68.0179 43.1052C69.5126 42.8018 71.0027 42.5391 72.4702 42.2945L72.0988 59.2203C71.75 74.9956 54.9193 84.8875 40.9693 77.5229L17.5078 65.1355C22.7255 64.1209 26.521 59.9631 29.4197 55.7463C36.8613 44.8988 40.2084 31.9135 47.1517 20.8214C48.2523 19.0731 49.5567 17.2297 51.296 16.0475C51.5768 15.8573 52.6457 15.7577 53.2843 16.2332C57.5554 19.4173 58.656 25.5454 60.1416 30.5773C61.1606 34.0196 61.994 37.5796 62.5466 41.1758C59.6977 41.8552 56.8941 42.684 54.1766 43.7303C51.3186 44.8309 47.976 46.2666 46.1689 48.8755C44.1352 51.8059 45.8473 55.1122 47.9896 57.4674C50.9246 60.7013 55.1685 63.1199 59.4939 63.822C62.3564 64.284 65.2324 63.9352 66.8177 61.3082C68.104 59.175 68.4301 56.5254 68.5841 54.0886C68.7969 50.737 68.5524 47.3627 68.1402 44.0382C68.104 43.7257 68.0632 43.4177 68.0179 43.1052Z" fill="#ffffff"/>
<path d="M72.9242 21.7318L72.5393 39.3052C70.8816 39.5498 69.2193 39.817 67.5616 40.1205C66.5607 34.2008 64.9075 28.2992 62.3439 22.9094C59.9389 17.8638 55.9713 12.4785 49.6666 12.9722C45.0377 13.3345 42.3473 18.2307 40.359 21.8495C37.0119 27.9368 34.4393 34.4317 31.5043 40.7183C28.6237 46.8781 25.5438 53.3866 20.7836 58.3507C19.0172 60.1986 16.9292 61.8925 14.4336 62.6036C13.9943 62.7305 13.564 62.7984 13.1383 62.821L11.322 61.8608C-2.6371 54.4963 -3.95964 35.0251 8.86718 25.8352L39.3535 4.00883C53.5753 -6.17291 73.3138 4.24888 72.9288 21.7318H72.9242Z" fill="#ffffff"/>
<path d="M103.427 20.9941L112.304 59.5697H103.513L102.05 52.8347H91.5784L90.1155 59.5697H81.3242L90.2015 20.9941H103.431H103.427ZM96.8323 28.9792L93.4264 44.4194H100.193L96.8323 28.9792Z" fill="#ffffff"/>
<path d="M142.6 59.8096H134.108V58.5097C132.903 59.343 131.377 59.7733 129.542 59.8096H122.517C116.829 59.8096 113.984 56.9561 113.984 51.2493V29.3142C113.984 23.6073 116.829 20.7539 122.517 20.7539H134.067C139.756 20.7539 142.6 23.6073 142.6 29.3142V33.2093H133.895V30.3695C133.895 29.0877 133.32 28.4446 132.169 28.4446H124.411C123.26 28.4446 122.685 29.0877 122.685 30.3695V50.1849C122.685 51.4667 123.26 52.1098 124.411 52.1098H132.382C133.329 52.1098 133.904 51.82 134.103 51.2448V45.2798H128.46V37.5846H142.596V59.805L142.6 59.8096Z" fill="#ffffff"/>
<path d="M155.309 51.3944H171.556V59.5697H146.387V20.9941H155.305V51.3944H155.309Z" fill="#ffffff"/>
</g>
<defs>
<clipPath id="clip0_2154_20748">
<rect width="171.563" height="80" fill="white"/>
</clipPath>
</defs>
</svg>
